<svg width="16" height="16" viewBox="0 0 16 15" fill="none" xmlns="http://www.w3.org/2000/svg">
<path d="M15.8525 6.56306L14.2222 5.12333V1.33333C14.2222 1.21546 14.1754 1.10241 14.092 1.01906C14.0087 0.935714 13.8956 0.888889 13.7778 0.888889H12C11.8821 0.888889 11.7691 0.935714 11.6857 1.01906C11.6024 1.10241 11.5555 1.21546 11.5555 1.33333V2.76861L8.74331 0.286111C8.56887 0.128056 8.23637 0 7.99998 0C7.76359 0 7.43192 0.128056 7.25748 0.286111L0.146368 6.56389C0.102949 6.60291 0.0676438 6.65011 0.0424693 6.70278C0.0172947 6.75546 0.00274411 6.81257 -0.000351344 6.87087C-0.0034468 6.92917 0.00497354 6.98751 0.0244287 7.04255C0.0438838 7.09759 0.0739925 7.14826 0.113035 7.19167L0.707479 7.85278C0.796243 7.94103 0.91443 7.99344 1.03942 8C1.14799 7.99429 1.25194 7.95432 1.33637 7.88583L1.77803 7.49694V13.3333C1.77803 13.5691 1.87169 13.7952 2.03838 13.9619C2.20508 14.1286 2.43118 14.2222 2.66692 14.2222H13.3333C13.5691 14.2222 13.7952 14.1286 13.9619 13.9619C14.1286 13.7952 14.2222 13.5691 14.2222 13.3333V7.49639L14.6641 7.88528C14.7488 7.95395 14.8531 7.9941 14.9619 8C15.0863 7.99332 15.2038 7.94077 15.2916 7.8525L15.8864 7.19111C15.9545 7.10645 15.9943 7.00244 16 6.89389C15.9933 6.76918 15.9408 6.65135 15.8525 6.56306ZM9.77776 8.29611C9.77739 8.45331 9.71474 8.60396 9.60353 8.71506C9.49233 8.82616 9.34162 8.88867 9.18442 8.88889H6.81498C6.65788 8.88852 6.50731 8.82595 6.39623 8.71486C6.28514 8.60378 6.22257 8.45321 6.2222 8.29611V5.92556C6.22271 5.76855 6.28535 5.61813 6.39642 5.50716C6.50749 5.39619 6.65797 5.3337 6.81498 5.33333H9.18442C9.34153 5.33355 9.49215 5.39598 9.60334 5.50697C9.71453 5.61795 9.77724 5.76845 9.77776 5.92556V8.29611Z"/>
</svg>
