<svg width="16" height="16" viewBox="0 0 12 16" fill="none" xmlns="http://www.w3.org/2000/svg" preserveAspectRatio="xMidYMid">
<path d="M10.5 2H8C8 0.896875 7.10313 0 6 0C4.89687 0 4 0.896875 4 2H1.5C0.671875 2 0 2.67188 0 3.5V14.5C0 15.3281 0.671875 16 1.5 16H10.5C11.3281 16 12 15.3281 12 14.5V3.5C12 2.67188 11.3281 2 10.5 2ZM6 1.25C6.41563 1.25 6.75 1.58438 6.75 2C6.75 2.41563 6.41563 2.75 6 2.75C5.58437 2.75 5.25 2.41563 5.25 2C5.25 1.58438 5.58437 1.25 6 1.25ZM2.05 6.54375L2.44688 6.15C2.5125 6.08437 2.61875 6.08437 2.68438 6.15L3.32812 6.8L4.81563 5.325C4.88125 5.25937 4.9875 5.25937 5.05312 5.325L5.44688 5.72188C5.5125 5.7875 5.5125 5.89375 5.44688 5.95937L3.44062 7.94688C3.375 8.0125 3.26875 8.0125 3.20312 7.94688L2.05 6.78125C1.98438 6.71562 1.98438 6.60938 2.05 6.54375ZM3 12.25C2.58437 12.25 2.25 11.9156 2.25 11.5C2.25 11.0844 2.58437 10.75 3 10.75C3.41563 10.75 3.75 11.0844 3.75 11.5C3.75 11.9156 3.41563 12.25 3 12.25ZM10 11.75C10 11.8875 9.8875 12 9.75 12H5.25C5.1125 12 5 11.8875 5 11.75V11.25C5 11.1125 5.1125 11 5.25 11H9.75C9.8875 11 10 11.1125 10 11.25V11.75ZM10 7.75C10 7.8875 9.86562 8 9.7 8H4.81563L5.825 7H9.7C9.86562 7 10 7.1125 10 7.25V7.75Z" />
</svg>
